<svg xmlns="http://www.w3.org/2000/svg" width="100.808" height="100.754" viewBox="0 0 100.808 100.754"><path d="M-290.779-220.771A5.782,5.782,0,0,1-285-226.546a5.781,5.781,0,0,1,5.774,5.775A5.781,5.781,0,0,1-285-215,5.781,5.781,0,0,1-290.779-220.771Zm2.9,0A2.881,2.881,0,0,0-285-217.894a2.88,2.88,0,0,0,2.877-2.877A2.881,2.881,0,0,0-285-223.649,2.881,2.881,0,0,0-287.882-220.771ZM-325.225-215a1.457,1.457,0,0,1-1.465-1.449,1.457,1.457,0,0,1,1.465-1.448h24.832a4.047,4.047,0,0,0,4.065-4.019,4.047,4.047,0,0,0-4.065-4.018h-47.363a13.251,13.251,0,0,1-13.311-13.158,13.25,13.25,0,0,1,13.311-13.158h46.967a21.074,21.074,0,0,0,3.972-.379,13.234,13.234,0,0,1,2.435-3.2,13.176,13.176,0,0,1,9.445-3.738l.063,0a20.382,20.382,0,0,0,4.94-13.306,20.76,20.76,0,0,0-20.856-20.616h-45.072a4.046,4.046,0,0,0-4.064,4.019,4.046,4.046,0,0,0,4.064,4.018h35.208a1.457,1.457,0,0,1,1.465,1.449,1.457,1.457,0,0,1-1.465,1.448h-35.208a6.964,6.964,0,0,1-7-6.916,6.964,6.964,0,0,1,7-6.916h45.072A23.678,23.678,0,0,1-277-272.863a23.2,23.2,0,0,1-4.539,13.8,13.176,13.176,0,0,1,5.8,3.4,12.909,12.909,0,0,1,3.8,9.165,13.051,13.051,0,0,1-6.819,11.431,3.644,3.644,0,0,0-1.286,1.217l-2.641,4.061a2.932,2.932,0,0,1-2.469,1.332h0a2.929,2.929,0,0,1-2.468-1.332l-2.641-4.061a3.629,3.629,0,0,0-1.283-1.213,13.041,13.041,0,0,1-6.823-11.515,12.83,12.83,0,0,1,.358-2.932,24.162,24.162,0,0,1-2.776.161h-46.967a10.333,10.333,0,0,0-10.38,10.262,10.333,10.333,0,0,0,10.38,10.261h47.363a6.964,6.964,0,0,1,7,6.916,6.964,6.964,0,0,1-7,6.916Zm32.892-38.755a10.023,10.023,0,0,0-3.108,7.19,10.152,10.152,0,0,0,5.313,8.962,6.558,6.558,0,0,1,2.327,2.182l2.641,4.061,2.648-4.061a6.553,6.553,0,0,1,2.331-2.183,10.16,10.16,0,0,0,5.309-8.9,10.268,10.268,0,0,0-10.112-10.166h-.17A10.269,10.269,0,0,0-292.333-253.751ZM-349.307-215A22.718,22.718,0,0,1-372-237.689v-2.8a22.718,22.718,0,0,1,22.693-22.693h47.826a9.693,9.693,0,0,0,9.682-9.682,9.693,9.693,0,0,0-9.682-9.682h-3.039a1.448,1.448,0,0,1-1.448-1.448,1.448,1.448,0,0,1,1.448-1.449h3.039A12.593,12.593,0,0,1-288.9-272.863a12.593,12.593,0,0,1-12.579,12.579h-47.826a19.818,19.818,0,0,0-19.8,19.8v2.8a19.818,19.818,0,0,0,19.8,19.8h16.951a1.448,1.448,0,0,1,1.448,1.449A1.448,1.448,0,0,1-332.356-215Zm-4.01-24.473a6.961,6.961,0,0,1,6.953-6.953,6.961,6.961,0,0,1,6.953,6.953,6.961,6.961,0,0,1-6.953,6.952A6.96,6.96,0,0,1-353.317-239.469Zm2.9,0a4.06,4.06,0,0,0,4.055,4.055,4.06,4.06,0,0,0,4.056-4.055,4.061,4.061,0,0,0-4.056-4.056A4.06,4.06,0,0,0-350.419-239.469Zm58.328-7.323A7.1,7.1,0,0,1-285-253.88a7.1,7.1,0,0,1,7.088,7.088A7.1,7.1,0,0,1-285-239.706,7.094,7.094,0,0,1-292.091-246.793Zm2.9,0A4.194,4.194,0,0,0-285-242.6a4.2,4.2,0,0,0,4.19-4.189,4.2,4.2,0,0,0-4.19-4.19A4.2,4.2,0,0,0-289.194-246.793Zm-19.6-26.707a6.961,6.961,0,0,1,6.953-6.953,6.961,6.961,0,0,1,6.953,6.953,6.961,6.961,0,0,1-6.953,6.952A6.96,6.96,0,0,1-308.792-273.5Zm2.9,0a4.061,4.061,0,0,0,4.055,4.055,4.061,4.061,0,0,0,4.056-4.055,4.061,4.061,0,0,0-4.056-4.056A4.061,4.061,0,0,0-305.895-273.5Zm-59.947-14.445v-7.782a10.09,10.09,0,0,1-5.958-9.193A10.09,10.09,0,0,1-361.722-315a10.091,10.091,0,0,1,10.079,10.078,10.091,10.091,0,0,1-5.959,9.194v7.782a4.125,4.125,0,0,1-4.12,4.12A4.125,4.125,0,0,1-365.842-287.945Zm2.9,0a1.225,1.225,0,0,0,1.223,1.223,1.224,1.224,0,0,0,1.223-1.223v-6.975a10.156,10.156,0,0,1-1.223.077,10.167,10.167,0,0,1-1.223-.077Zm-5.958-16.976a7.19,7.19,0,0,0,7.181,7.181,7.19,7.19,0,0,0,7.182-7.182,7.19,7.19,0,0,0-7.182-7.181A7.19,7.19,0,0,0-368.9-304.921Z" transform="translate(372.375 315.375)" fill="#daa520" stroke="#fff" stroke-width="0.75"/></svg>