<svg xmlns="http://www.w3.org/2000/svg" width="95.403" height="100.75" viewBox="0 0 95.403 100.75"><path d="M4.717,100A4.723,4.723,0,0,1,0,95.283V38.678A4.723,4.723,0,0,1,4.717,33.96h6.251V4.872A4.877,4.877,0,0,1,15.838,0h28.07a1.465,1.465,0,0,1,0,2.93H15.838A1.944,1.944,0,0,0,13.9,4.872V48.686l24.7,23.936a12.5,12.5,0,0,0,17.465,0l6.908-6.7,17.79-17.241V4.872A1.945,1.945,0,0,0,78.813,2.93H50.745a1.465,1.465,0,1,1,0-2.93H78.813a4.878,4.878,0,0,1,4.873,4.872V33.96h6.25a4.724,4.724,0,0,1,4.718,4.718V62.226a1.465,1.465,0,1,1-2.93,0V42.137L66.091,66.98,91.723,91.823V69.062a1.465,1.465,0,1,1,2.929,0V95.283A4.722,4.722,0,0,1,89.934,100Zm-1.7-4.178a1.8,1.8,0,0,0,1.7,1.248H89.934a1.8,1.8,0,0,0,1.7-1.248L63.986,69.02,58.1,74.726a15.475,15.475,0,0,1-21.543,0L30.668,69.02Zm-.084-4L28.562,66.98C27.427,65.881,3.924,43.1,2.93,42.137ZM83.686,45.847l7.953-7.708a1.8,1.8,0,0,0-1.7-1.248H83.686ZM3.013,38.138l7.954,7.709V36.89H4.717A1.8,1.8,0,0,0,3.013,38.138ZM48.77,52.431a7.028,7.028,0,0,1,.411-2.372L39.659,44.2a7.056,7.056,0,1,1,0-9.731L49.181,28.6a7.062,7.062,0,1,1,1.541,2.492L41.2,36.958a7.043,7.043,0,0,1,0,4.746l9.524,5.863a7.054,7.054,0,1,1-1.952,4.865Zm2.93,0A4.13,4.13,0,1,0,55.83,48.3,4.135,4.135,0,0,0,51.7,52.431ZM30.421,39.33A4.13,4.13,0,1,0,34.55,35.2,4.134,4.134,0,0,0,30.421,39.33ZM51.7,26.23A4.13,4.13,0,1,0,55.83,22.1,4.134,4.134,0,0,0,51.7,26.23Z" transform="translate(0.375 0.375)" fill="#daa520" stroke="#fff" stroke-width="0.75"/></svg>