<svg xmlns="http://www.w3.org/2000/svg" width="104.132" height="100.9" viewBox="0 0 104.132 100.9"><path d="M-317.047-239.14a24.167,24.167,0,0,1,24.14-24.14,24.167,24.167,0,0,1,24.14,24.14A24.167,24.167,0,0,1-292.907-215,24.167,24.167,0,0,1-317.047-239.14Zm3.024,0a21.139,21.139,0,0,0,21.116,21.115,21.139,21.139,0,0,0,21.115-21.115,21.139,21.139,0,0,0-21.115-21.116A21.139,21.139,0,0,0-314.023-239.14Zm-51.616,7.977A6.368,6.368,0,0,1-372-237.524v-64.65a6.368,6.368,0,0,1,6.361-6.361h1.72v-1.72A4.75,4.75,0,0,1-359.174-315a4.75,4.75,0,0,1,4.745,4.745v6.465a4.75,4.75,0,0,1-4.745,4.745,4.75,4.75,0,0,1-4.745-4.745v-1.721h-1.72a3.34,3.34,0,0,0-3.337,3.337v6.569h77.789v-6.569a3.34,3.34,0,0,0-3.337-3.337h-1.72v1.721a4.75,4.75,0,0,1-4.745,4.745,4.75,4.75,0,0,1-4.745-4.745v-1.721h-43.743a1.512,1.512,0,0,1-1.512-1.512,1.512,1.512,0,0,1,1.512-1.512h43.743v-1.72A4.75,4.75,0,0,1-300.988-315a4.75,4.75,0,0,1,4.745,4.745v1.72h1.72a6.368,6.368,0,0,1,6.361,6.361v33.941a1.512,1.512,0,0,1-1.512,1.512,1.512,1.512,0,0,1-1.512-1.512V-292.58h-77.789v55.057a3.34,3.34,0,0,0,3.337,3.337H-322a1.512,1.512,0,0,1,1.512,1.512A1.512,1.512,0,0,1-322-231.163Zm62.93-79.093v6.465a1.722,1.722,0,0,0,1.72,1.72,1.722,1.722,0,0,0,1.72-1.721v-6.465a1.722,1.722,0,0,0-1.72-1.72A1.722,1.722,0,0,0-302.709-310.255Zm-58.185,0v6.465a1.722,1.722,0,0,0,1.72,1.72,1.722,1.722,0,0,0,1.72-1.72v-6.465a1.722,1.722,0,0,0-1.72-1.72A1.722,1.722,0,0,0-360.894-310.255Zm63.242,71.115a4.714,4.714,0,0,1,.5-2.11l-8.135-8.135a1.512,1.512,0,0,1,0-2.138,1.512,1.512,0,0,1,2.138,0l8.135,8.135a4.714,4.714,0,0,1,2.11-.5A4.74,4.74,0,0,1-289.121-242l10.282-3.427a1.512,1.512,0,0,1,1.913.956,1.512,1.512,0,0,1-.956,1.913l-10.28,3.427a4.75,4.75,0,0,1-4.744,4.732A4.75,4.75,0,0,1-297.652-239.14Zm3.024,0a1.722,1.722,0,0,0,1.72,1.72,1.722,1.722,0,0,0,1.72-1.72,1.722,1.722,0,0,0-1.72-1.72A1.722,1.722,0,0,0-294.628-239.14Zm-53.5-7.847a1.676,1.676,0,0,1-1.1-1.1c-.3-.961.081-1.454,1.888-3.821,1.565-2.05,4.479-5.866,9.359-12.838a18.612,18.612,0,0,0,3.008-6.059l.129-1.007a6.34,6.34,0,0,0-6.332-6.242,6.342,6.342,0,0,0-6.214,5.1,1.512,1.512,0,0,1-1.775,1.192,1.512,1.512,0,0,1-1.192-1.775,9.372,9.372,0,0,1,9.182-7.545,9.368,9.368,0,0,1,9.357,9.357,1.474,1.474,0,0,1-.012.192l-.151,1.186a1.507,1.507,0,0,1-.027.15,21.382,21.382,0,0,1-3.494,7.181c-4.916,7.024-7.855,10.872-9.434,12.939l-.183.24c2.945.033,8.235,0,13.07-.058a1.519,1.519,0,0,1,1.531,1.493A1.512,1.512,0,0,1-332-246.861c-4.308.054-7.447.075-9.739.075C-347.523-246.786-347.921-246.919-348.124-246.987Zm23.622-.232a1.512,1.512,0,0,1-.776-1.993l12.545-28.539h-14.55a1.512,1.512,0,0,1-1.512-1.512,1.512,1.512,0,0,1,1.512-1.512h16.866a1.512,1.512,0,0,1,1.266.686,1.512,1.512,0,0,1,.118,1.435l-13.477,30.659a1.512,1.512,0,0,1-1.385.9A1.506,1.506,0,0,1-324.5-247.218Z" transform="translate(372.45 315.45)" fill="#daa520" stroke="#fff" stroke-width="0.9"/></svg>