<svg xmlns="http://www.w3.org/2000/svg" width="107.693" height="101" viewBox="0 0 107.693 101"><path d="M-365.474-215A6.533,6.533,0,0,1-372-221.526v-86.948a6.589,6.589,0,0,1,.088-1.074c.009-.054.019-.107.029-.16,0-.026.01-.053.015-.08A6.538,6.538,0,0,1-365.474-315h93.641a6.538,6.538,0,0,1,6.393,5.212c.006.027.011.054.016.08.01.054.02.107.029.16a6.586,6.586,0,0,1,.088,1.074v86.948A6.534,6.534,0,0,1-271.833-215Zm-3.4-6.526a3.4,3.4,0,0,0,3.4,3.4h93.641a3.4,3.4,0,0,0,3.4-3.4v-71.705h-85.894a1.563,1.563,0,0,1-1.563-1.563,1.563,1.563,0,0,1,1.563-1.563h85.894v-12.117a3.24,3.24,0,0,0-.018-.348c0-.029-.006-.056-.01-.085-.01-.085-.024-.169-.041-.252-.008-.042-.018-.082-.028-.124,0-.014-.006-.027-.01-.041-.01-.041-.021-.081-.033-.121l-.012-.04a3.407,3.407,0,0,0-3.247-2.39h-93.641a3.407,3.407,0,0,0-3.247,2.39l-.012.04c-.012.041-.024.081-.033.121,0,.014-.007.028-.01.041-.01.041-.02.082-.028.124-.017.083-.031.167-.041.252,0,.029-.007.056-.01.085a3.288,3.288,0,0,0-.018.348v12.117h8.712a1.562,1.562,0,0,1,1.563,1.563,1.563,1.563,0,0,1-1.563,1.563h-8.712ZM-348.2-239.41h-6.6a5.557,5.557,0,0,1-5.551-5.551v-20.147a5.557,5.557,0,0,1,5.551-5.551h6.6c12.522-23.643,46.532-23.715,59.092,0h6.6a5.557,5.557,0,0,1,5.551,5.551v8.234a1.563,1.563,0,0,1-1.563,1.563,1.562,1.562,0,0,1-1.563-1.563v-8.234a2.428,2.428,0,0,0-2.425-2.425H-354.8a2.427,2.427,0,0,0-2.425,2.425v20.147a2.428,2.428,0,0,0,2.425,2.425h72.29a2.428,2.428,0,0,0,2.425-2.425v-6.077a1.563,1.563,0,0,1,1.563-1.563,1.563,1.563,0,0,1,1.563,1.563v6.077a5.557,5.557,0,0,1-5.551,5.551h-6.6a32.932,32.932,0,0,1-29.466,17.742A33.2,33.2,0,0,1-348.2-239.41Zm29.546,14.669c3.559,0,7.131-5.818,9.115-14.669h-18.23C-325.785-230.56-322.212-224.741-318.653-224.741Zm6.671-.729a30.056,30.056,0,0,0,19.289-13.94h-13.644C-307.631-233.28-309.588-228.519-311.983-225.471Zm-13.341,0c-2.395-3.048-4.352-7.809-5.644-13.94h-13.645A30.056,30.056,0,0,0-325.324-225.471Zm18.986-45.188h13.645a30.053,30.053,0,0,0-19.289-13.94C-309.588-281.55-307.631-276.788-306.338-270.658Zm-21.43,0h18.23c-1.984-8.851-5.556-14.669-9.115-14.669S-325.785-279.509-327.768-270.658Zm-16.845,0h13.645c1.293-6.13,3.249-10.891,5.644-13.94A30.051,30.051,0,0,0-344.613-270.658Zm52.478,20.97-3.284-6.733-3.253,6.669a1.457,1.457,0,0,1-.7.735h0a1.458,1.458,0,0,1-1.948-.671l-4.593-9.416a1.457,1.457,0,0,1,.671-1.948,1.453,1.453,0,0,1,1.948.671l3.282,6.85,3.283-6.85a1.46,1.46,0,0,1,2.621,0l3.282,6.85,3.283-6.85a1.453,1.453,0,0,1,1.948-.671,1.458,1.458,0,0,1,.671,1.948l-4.562,9.351a1.456,1.456,0,0,1-.7.735,1.453,1.453,0,0,1-.638.148A1.457,1.457,0,0,1-292.136-249.688Zm-23.233,0-3.285-6.733-3.253,6.669a1.452,1.452,0,0,1-.7.735h0a1.457,1.457,0,0,1-1.948-.671l-4.593-9.416a1.457,1.457,0,0,1,.671-1.948,1.453,1.453,0,0,1,1.948.671l3.283,6.85,3.282-6.85a1.46,1.46,0,0,1,2.621,0l3.282,6.85,3.283-6.85a1.454,1.454,0,0,1,1.948-.671,1.458,1.458,0,0,1,.671,1.948l-4.562,9.351a1.456,1.456,0,0,1-.7.735,1.452,1.452,0,0,1-.638.148A1.456,1.456,0,0,1-315.369-249.688Zm-23.233,0-3.285-6.733-3.253,6.669a1.452,1.452,0,0,1-.7.735,1.457,1.457,0,0,1-1.948-.671l-4.593-9.416a1.458,1.458,0,0,1,.671-1.948,1.453,1.453,0,0,1,1.948.671l3.283,6.85,3.282-6.85a1.46,1.46,0,0,1,2.621,0l3.283,6.85,3.282-6.85a1.453,1.453,0,0,1,1.948-.671,1.458,1.458,0,0,1,.671,1.948l-4.562,9.351a1.453,1.453,0,0,1-.7.735,1.45,1.45,0,0,1-.637.148A1.458,1.458,0,0,1-338.6-249.688Zm.26-54.428a5.247,5.247,0,0,1,5.242-5.241,5.247,5.247,0,0,1,5.241,5.241,5.248,5.248,0,0,1-5.241,5.242A5.248,5.248,0,0,1-338.342-304.116Zm3.126,0A2.119,2.119,0,0,0-333.1-302a2.119,2.119,0,0,0,2.116-2.116,2.118,2.118,0,0,0-2.116-2.116A2.118,2.118,0,0,0-335.216-304.116Zm-15.578,0a5.247,5.247,0,0,1,5.241-5.241,5.247,5.247,0,0,1,5.242,5.241,5.248,5.248,0,0,1-5.242,5.242A5.247,5.247,0,0,1-350.794-304.116Zm3.126,0A2.119,2.119,0,0,0-345.553-302a2.119,2.119,0,0,0,2.116-2.116,2.118,2.118,0,0,0-2.116-2.116A2.118,2.118,0,0,0-347.668-304.116Zm-15.579,0a5.247,5.247,0,0,1,5.242-5.241,5.247,5.247,0,0,1,5.241,5.241,5.248,5.248,0,0,1-5.242,5.242A5.248,5.248,0,0,1-363.248-304.116Zm3.126,0A2.119,2.119,0,0,0-358.006-302a2.119,2.119,0,0,0,2.116-2.116,2.118,2.118,0,0,0-2.116-2.116A2.118,2.118,0,0,0-360.122-304.116Zm44.317,1.563a1.562,1.562,0,0,1-1.563-1.563,1.563,1.563,0,0,1,1.563-1.563h38.065a1.563,1.563,0,0,1,1.563,1.563,1.563,1.563,0,0,1-1.563,1.563Z" transform="translate(372.5 315.5)" fill="#daa520" stroke="#fff" stroke-width="1"/></svg>