<svg xmlns="http://www.w3.org/2000/svg" width="93.989" height="100.787" viewBox="0 0 93.989 100.787"><g transform="translate(-16.933 0.412)"><g transform="translate(17.308 0)"><path d="M229.826,109.292a4.019,4.019,0,0,0-3.714-.445L184.52,124.722a4.042,4.042,0,0,0-2.587,3.756v35.846a13.927,13.927,0,0,0-7.158,1.414c-6.351,3.118-9.247,10.28-6.456,15.966a10.845,10.845,0,0,0,7.042,5.662,12.869,12.869,0,0,0,3.387.45,13.979,13.979,0,0,0,6.152-1.455,12.942,12.942,0,0,0,7.522-11.331,1.5,1.5,0,0,0,.009-.169V134.27l28.636-10.93v6.914a1.476,1.476,0,0,0,2.952,0v-7.231a2.733,2.733,0,0,0-3.708-2.554l-29.072,11.1a2.748,2.748,0,0,0-1.759,2.554v40.562a1.484,1.484,0,0,0-.011.2,9.956,9.956,0,0,1-5.87,8.825,10.618,10.618,0,0,1-7.461.807,7.935,7.935,0,0,1-5.169-4.115c-2.074-4.225.217-9.615,5.107-12.016a10.746,10.746,0,0,1,7.014-.917,1.476,1.476,0,0,0,1.795-1.441V128.478a1.074,1.074,0,0,1,.687-1L227.165,111.6a1.068,1.068,0,0,1,1.449,1l-.011,47c0,.009,0,.017,0,.026a9.957,9.957,0,0,1-5.87,8.825,10.619,10.619,0,0,1-7.461.807,7.935,7.935,0,0,1-5.169-4.115c-2.074-4.225.217-9.615,5.107-12.016a10.744,10.744,0,0,1,7.014-.917,1.476,1.476,0,0,0,1.795-1.441V137.141a1.476,1.476,0,0,0-2.952,0v11.927a13.924,13.924,0,0,0-7.158,1.414c-6.351,3.118-9.247,10.281-6.456,15.966a10.845,10.845,0,0,0,7.042,5.662,13.565,13.565,0,0,0,9.539-1.006,12.913,12.913,0,0,0,7.52-11.511l.011-46.991a4.02,4.02,0,0,0-1.74-3.311Z" transform="translate(-138.327 -87.816)" fill="#daa520" stroke="#fff" stroke-width="0.75"/><path d="M65.792,5.838A5.817,5.817,0,0,0,57.9.4L50.7,3.153a6.366,6.366,0,0,0-4.073,5.914V43.322a13.922,13.922,0,0,0-7.158,1.414,13.585,13.585,0,0,0-6.6,6.865,10.872,10.872,0,0,0,.08,8.966A1.476,1.476,0,1,0,35.611,59.3c-1.988-4.2.324-9.547,5.154-11.918a10.746,10.746,0,0,1,7.014-.917,1.476,1.476,0,0,0,1.795-1.441V9.067a3.4,3.4,0,0,1,2.174-3.157l7.205-2.75A2.866,2.866,0,0,1,61.041,8.5l-5.156,2.067A2.72,2.72,0,0,0,54.169,13.1l-.011,40.757c0,.009,0,.017,0,.026a9.956,9.956,0,0,1-5.87,8.825,10.441,10.441,0,0,1-8.47.469,1.476,1.476,0,0,0-1.1,2.738,12.605,12.605,0,0,0,4.713.9,14.009,14.009,0,0,0,6.16-1.456,12.914,12.914,0,0,0,7.521-11.511l.011-40.6,5.019-2.012a5.79,5.79,0,0,0,3.653-5.4Z" transform="translate(-29.063 -0.016)" fill="#daa520" stroke="#fff" stroke-width="0.75"/><path d="M36.5,374.118c-3.7-1.6-6.116-5.919-6.986-7.7a2.172,2.172,0,0,0-3.905,0c-.869,1.784-3.289,6.1-6.986,7.7a2.174,2.174,0,0,0,0,4c3.7,1.6,6.116,5.919,6.986,7.7a2.157,2.157,0,0,0,1.952,1.221h0a2.157,2.157,0,0,0,1.953-1.221c.869-1.784,3.289-6.1,6.985-7.7a2.174,2.174,0,0,0,0-4Zm-8.938,9.065a19.1,19.1,0,0,0-6.385-7.067,19.1,19.1,0,0,0,6.385-7.067,19.1,19.1,0,0,0,6.385,7.067A19.091,19.091,0,0,0,27.563,383.182Z" transform="translate(-17.308 -294.027)" fill="#daa520" stroke="#fff" stroke-width="0.75"/><path d="M319.955,12.92c3.7,1.6,6.117,5.919,6.986,7.7a2.172,2.172,0,0,0,3.905,0c.869-1.784,3.289-6.1,6.986-7.7a2.174,2.174,0,0,0,0-4c-3.7-1.6-6.117-5.919-6.986-7.7a2.172,2.172,0,0,0-3.905,0h0c-.869,1.784-3.289,6.1-6.986,7.7a2.174,2.174,0,0,0,0,4Zm8.938-9.065a19.092,19.092,0,0,0,6.385,7.067,19.09,19.09,0,0,0-6.385,7.067,19.091,19.091,0,0,0-6.385-7.067A19.09,19.09,0,0,0,328.893,3.855Z" transform="translate(-259.877 0)" fill="#daa520" stroke="#fff" stroke-width="0.75"/><path d="M235.526,68.388c2.891,1.25,4.8,4.662,5.486,6.071a2.037,2.037,0,0,0,3.662,0c.686-1.409,2.595-4.821,5.486-6.071a2.039,2.039,0,0,0,0-3.747c-2.892-1.25-4.8-4.662-5.487-6.071a2.037,2.037,0,0,0-3.662,0c-.686,1.409-2.595,4.821-5.486,6.071a2.039,2.039,0,0,0,0,3.747Zm7.318-6.995a15.694,15.694,0,0,0,4.61,5.121,15.69,15.69,0,0,0-4.61,5.121,15.693,15.693,0,0,0-4.61-5.121A15.693,15.693,0,0,0,242.843,61.393Z" transform="translate(-191.964 -46.146)" fill="#daa520" stroke="#fff" stroke-width="0.75"/></g></g></svg>