<svg xmlns="http://www.w3.org/2000/svg" width="107.16" height="101" viewBox="0 0 107.16 101"><g transform="translate(-629.5 -1473.5)"><path d="M144.026,74.415a6.912,6.912,0,1,0-6.913-6.912A6.921,6.921,0,0,0,144.026,74.415Zm0-10.983a4.071,4.071,0,1,1-4.071,4.07A4.075,4.075,0,0,1,144.026,63.432Zm0,0" transform="translate(521.724 1424.889)" fill="#daa520" stroke="#fff" stroke-width="1"/><path d="M329.124,312.88a2.256,2.256,0,0,0-3.5,1.88v9.859a2.255,2.255,0,0,0,3.525,1.861l7.332-5a2.255,2.255,0,0,0-.027-3.741Zm-.657,10.626v-7.653l5.691,3.768Zm0,0" transform="translate(372.701 1227.337)" fill="#daa520" stroke="#fff" stroke-width="1"/><path d="M103.314,45.351H81.5V3.168A3.171,3.171,0,0,0,78.333,0H43.417a1.555,1.555,0,1,0,0,3.11H78.333a.058.058,0,0,1,.058.058V45.35H75.23V7.826a1.555,1.555,0,0,0-1.555-1.555H7.826A1.554,1.554,0,0,0,6.271,7.826V59.668a1.554,1.554,0,0,0,1.555,1.555H40.3v3.161H3.168a.057.057,0,0,1-.058-.058V3.168a.058.058,0,0,1,.058-.058H36.16a1.555,1.555,0,1,0,0-3.11H3.168A3.171,3.171,0,0,0,0,3.168V64.327a3.171,3.171,0,0,0,3.168,3.168H40.3V97.154A2.849,2.849,0,0,0,43.145,100h60.169a2.849,2.849,0,0,0,2.846-2.846V76.29a1.555,1.555,0,0,0-3.11,0V87.827H43.41v-30.3H103.05V69.033a1.555,1.555,0,0,0,3.11,0V48.2A2.849,2.849,0,0,0,103.314,45.351ZM25.082,58.113H9.382V56.64L25.323,33.625a.035.035,0,0,1,.059,0l8.233,12.025ZM95.7,90.937h7.349V96.89H95.7Zm-10.459,0h7.349V96.89H85.243Zm-10.458,0h7.348V96.89H74.785Zm-10.459,0h7.349V96.89H64.326Zm-10.458,0h7.348V96.89H53.868Zm-3.11,0V96.89H43.41V90.937ZM43.145,45.351A2.849,2.849,0,0,0,40.3,48.2v9.917H28.851c1.093-1.6,23.819-34.789,24.858-36.306a.036.036,0,0,1,.059,0l16.1,23.544Zm7.613,9.063H43.41V48.461h7.349Zm10.458,0H53.868V48.461h7.348Zm10.459,0H64.326V48.461h7.349Zm.445-11.286L56.335,20.051a3.146,3.146,0,0,0-5.192,0L35.5,42.9,27.948,31.869a3.148,3.148,0,0,0-5.187-.007L9.382,51.178V9.382H72.119ZM82.133,54.414H74.785V48.461h7.348Zm10.459,0H85.244V48.461h7.348Zm10.459,0H95.7V48.461h7.349Zm0,0" transform="translate(630 1474)" fill="#daa520" stroke="#fff" stroke-width="1"/></g></svg>