<?xml version="1.0" encoding="iso-8859-1"?>
<!-- Generator: Adobe Illustrator 19.0.0, SVG Export Plug-In . SVG Version: 6.00 Build 0)  -->
<svg fill="#fff" version="1.1" id="Layer_1" xmlns="http://www.w3.org/2000/svg" xmlns:xlink="http://www.w3.org/1999/xlink" x="0px" y="0px"
	 viewBox="0 0 512 512" style="enable-background:new 0 0 512 512;" xml:space="preserve">
<g>
	<g>
		<path d="M512,128.768L383.233,0L0,383.233L128.768,512l155.566-155.566l57.341,57.341l9.884-62.215l62.215-9.884l-57.341-57.341
			L512,128.768z M128.768,466.02l-82.787-82.788L181.21,248.003c-0.035,0.908-0.066,1.816-0.066,2.73
			c0,18.588,7.239,36.063,20.382,49.207c12.536,12.536,29.015,19.685,46.638,20.321l13.182,13.182L128.768,466.02z M276.953,276.951
			c-7.003,7.003-16.315,10.86-26.219,10.86c-9.904,0-19.214-3.857-26.217-10.86s-10.86-16.315-10.86-26.217
			c0-9.905,3.857-19.214,10.86-26.217c7.002-7.003,16.314-10.86,26.217-10.86c9.903,0,19.215,3.857,26.219,10.86
			c7.003,7.003,10.86,16.314,10.86,26.217C287.813,260.637,283.956,269.948,276.953,276.951z M323.15,323.15l-3.581,22.539
			l-34.445-34.445c5.354-3.053,10.341-6.827,14.817-11.303s8.249-9.463,11.303-14.817l34.445,34.445L323.15,323.15z
			 M333.443,261.345l-13.182-13.182c-0.636-17.624-7.785-34.103-20.321-46.637c-13.144-13.144-30.62-20.383-49.208-20.383
			c-0.914,0-1.822,0.031-2.73,0.067L383.233,45.98l82.787,82.788L333.443,261.345z"/>
	</g>
</g>
<g>
</g>
<g>
</g>
<g>
</g>
<g>
</g>
<g>
</g>
<g>
</g>
<g>
</g>
<g>
</g>
<g>
</g>
<g>
</g>
<g>
</g>
<g>
</g>
<g>
</g>
<g>
</g>
<g>
</g>
</svg>
