<svg fill="#fff" height="511pt" viewBox="0 -113 511.99978 511" width="511pt" xmlns="http://www.w3.org/2000/svg"><path d="m454.445312 174.820312c-11.589843 2.417969-21.542968 9.199219-28.027343 19.105469-11.167969 17.046875-6.382813 40 10.664062 51.164063 20.972657 13.738281 48.046875-3.03125 44.617188-19.496094-1.730469-8.296875-9.859375-13.621094-18.15625-11.890625-9.519531 1.984375-14.941407 12.300781-10.832031 21.363281-13.261719-1.144531-22.785157-19.035156-13.707032-32.898437 4.285156-6.539063 10.859375-11.019531 18.511719-12.613281 27.949219-5.828126 50.972656 30.15625 33.113281 57.425781-15.097656 23.046875-46.128906 29.515625-69.175781 14.417969-29.746094-19.484376-38.054687-59.324219-18.566406-89.074219 2.179687-3.324219 1.386719-7.769531-1.800781-10.144531-3.183594-2.378907-7.675782-1.863282-10.246094 1.175781-.175782.207031-17.960938 20.980469-47.851563 34.230469-19.039062 8.445312-38.476562 12.058593-58.179687 10.882812 4.691406-2.1875 9.449218-4.644531 14.277344-7.402344 3.605468-2.0625 4.859374-6.65625 2.796874-10.265625s-6.660156-4.863281-10.261718-2.800781c-11.929688 6.816406-23.808594 11.941406-35.617188 15.390625-11.808594-3.449219-23.6875-8.574219-35.613281-15.390625-3.605469-2.0625-8.203125-.808594-10.265625 2.800781-2.058594 3.609375-.808594 8.203125 2.800781 10.265625 4.828125 2.757813 9.585938 5.214844 14.277344 7.402344-19.703125 1.175781-39.140625-2.4375-58.183594-10.882812-29.886719-13.25-47.671875-34.023438-47.839843-34.222657-2.5625-3.050781-7.054688-3.574219-10.25-1.199219-3.195313 2.378907-3.984376 6.832032-1.804688 10.160157 19.484375 29.746093 11.183594 69.589843-18.566406 89.074219-23.046875 15.09375-54.078125 8.628906-69.175782-14.417969-11.621093-17.746094-6.644531-41.636719 11.101563-53.257813 13.527344-8.859375 31.65625-5.089844 40.519531 8.445313 8.976563 13.699219-.28125 31.757812-13.722656 32.902343 4.109375-9.070312-1.320312-19.386718-10.835938-21.367187-8.296874-1.730469-16.425781 3.59375-18.152343 11.890625-3.410157 16.355469 23.574219 33.292969 44.636719 19.496094 17.046874-11.164063 21.832031-34.117188 10.664062-51.164063-6.484375-9.902343-16.4375-16.6875-28.027344-19.105469-40.964844-8.539062-74.007812 41.875-48.769531 80.402344 19.742187 30.140625 60.164063 38.3125 90.007813 18.761719 27.601562-18.078125 39.789062-49.964844 34.835937-79.542969 36.320313 26.277344 78.929687 35.707032 122.363281 24.46875 43.414063 11.234375 86.03125 1.820313 122.371094-24.46875-7.757812 46.328125 27.089844 90.152344 70.359375 90.152344 21.207031 0 42.019531-10.34375 54.484375-29.371094 25.1875-38.453125-7.757812-88.949218-48.773438-80.402344zm0 0"/><path d="m207.503906 171.359375c23.8125 0 40.195313-10.765625 48.5-17.976563 8.308594 7.210938 24.6875 17.976563 48.503906 17.976563 27.628907 0 56.980469-14.425781 87.246094-42.886719 5.972656-5.601562 4.523438-15.53125-2.679687-19.550781-.871094-.492187-1.863281-1.003906-2.949219-1.515625-3.761719-1.773438-8.234375-.160156-10.011719 3.59375-1.5625 3.308594-.5 7.191406 2.347657 9.277344-28.84375 26.246094-67.125 47.648437-101.8125 29.183594 0 0 0 0-.007813 0-4.390625-2.34375-8.472656-5.226563-11.988281-8.496094 16.777344-31 53.46875-35.085938 88.078125-28.210938 4.082031.800782 8.035156-1.847656 8.847656-5.917968.8125-4.074219-1.835937-8.035157-5.917969-8.847657-5.859375-1.164062-11.648437-1.996093-17.335937-2.5 6.078125-14.433593 10.324219-31.558593 12.660156-51.289062.964844-8.277344-6.667969-14.78125-14.625-13.261719-8.46875 1.625-28.398437 8.945312-47.5 22.269531-.632813-2.378906-1.324219-4.765625-2.085937-7.171875-1.265626-3.964844-5.488282-6.152344-9.449219-4.898437-3.964844 1.253906-6.152344 5.488281-4.898438 9.449219 1.394531 4.367187 2.539063 8.667968 3.421875 12.871093-8.566406 7.644531-14.910156 15.375-19.84375 23.476563-4.886718-8.027344-11.128906-15.65625-19.558594-23.222656 3.527344-14.277344 10.492188-29.683594 20.824219-46.046876 1.242188 1.875 2.609375 4.144532 3.960938 6.601563 2.007812 3.640625 6.582031 4.976563 10.222656 2.96875s4.964844-6.582031 2.96875-10.222656c-2.726563-4.945313-5.394531-9.070313-7.714844-11.917969-5.222656-6.386719-15.242187-6.09375-19.730469.753906-10.925781 16.671875-18.71875 32.621094-23.324218 47.71875-19.25-13.550781-39.453125-20.996094-48-22.628906-7.960938-1.519531-15.59375 4.984375-14.628906 13.261719 2.347656 19.742187 6.582031 36.863281 12.671874 51.300781-.582031.050781-1.171874.101562-1.753906.160156-4.132812.410156-7.144531 4.101563-6.734375 8.234375.414063 4.132813 4.105469 7.152344 8.238281 6.734375 30.417969-3.117187 59.464844 3.628906 73.914063 30.324219-10.015625 9.277344-24.101563 15.359375-39.855469 15.359375-22.773437 0-47.601562-12.078125-73.824218-35.925781 3.160156-1.382813 7.273437-2.867188 11.6875-4.191407 3.980468-1.195312 6.238281-5.386718 5.042968-9.371093-1.191406-3.980469-5.386718-6.238281-9.367187-5.046875-7.332031 2.207031-13.933594 4.808594-18.109375 7.144531-7.199219 4.023437-8.652344 13.949219-2.675782 19.550781 30.265626 28.460938 59.617188 42.886719 87.246094 42.886719zm84.707032-101.84375c15.597656-12.097656 33.222656-20.019531 43.296874-22.902344-2.589843 19.09375-7.085937 35.234375-13.445312 48.34375-23.820312.65625-46.011719 7.847657-61.503906 25.582031.585937-9.402343 14.929687-38.089843 31.652344-51.023437zm-46.265626 45.40625c-12.1875-11.121094-30.347656-19.265625-56.007812-19.964844-6.359375-13.109375-10.84375-29.25-13.433594-48.34375 10.101563 2.890625 27.769532 10.835938 43.398438 22.984375 11.988281 9.296875 22.914062 21.164063 28.15625 35.269532-.960938 3.324218-1.664063 6.671874-2.113282 10.054687zm0 0"/></svg>