<svg fill="#ffffff" height="512pt" viewBox="-1 -123 512.00143 512" width="512pt" xmlns="http://www.w3.org/2000/svg"><path d="m511.441406 153.128906c-1.574218-3.886718-6-5.761718-9.886718-4.183594-46.101563 18.699219-95.847657 23.078126-144.324219 12.789063.738281-.316406 1.476562-.636719 2.21875-.96875 3.816406-1.722656 5.515625-6.226563 3.796875-10.042969-1.722656-3.824218-6.214844-5.527344-10.042969-3.804687-18.417969 8.300781-38.3125 11.503906-56.804687 3.988281 1.410156-3.054688 2.695312-7.070312 3.320312-11.09375h36.15625c4.191406 0 7.589844-3.402344 7.589844-7.59375 0-4.1875-3.398438-7.589844-7.589844-7.589844-5.140625 0-31.179688 0-36.339844 0-.6875-3.664062-1.78125-7.011718-3.328125-10.394531 10.089844-3.753906 21.507813-4.890625 33.980469-2.734375 0 0 0 0 0-.003906 12.84375 2.210937 26.476562 7.785156 40.691406 16.644531 2.164063 1.351563 3.234375 3.664063 2.457032 6.085937-1.335938 3.964844.800781 8.269532 4.777343 9.605469 11.738281 3.941407 16.25-18.921875.792969-28.578125-13.320312-8.304687-26.34375-14.054687-38.929688-17.199218 8.390626-13.957032 12.875-29.027344 15.253907-40.425782 3.125-14.941406-9.824219-27.605468-24.710938-24.140625-16.347656 3.785157-29.351562 9.179688-39.6875 15.40625-3.886719-15.667969-11.285156-29.457031-17.804687-39.425781-10.886719-16.625-35.917969-8.625-29.699219 3.136719 1.953125 3.707031 6.550781 5.125 10.253906 3.167969 2.152344-1.136719 4.992188-.652344 6.742188 2.015624 6.648437 10.171876 14.351562 24.757813 17.054687 40.851563 3.28125 19.644531-2.496094 30.753906-3.167968 33.78125-3.554688-1.589844-7.277344-2.742187-11.183594-3.351563 0-12.078124 0-28.71875 0-36.15625 0-4.191406-3.402344-7.59375-7.59375-7.59375s-7.589844 3.402344-7.589844 7.59375v36.339844c-3.480469.648438-7 1.757813-10.398438 3.328125-6.769531-18.253906-3.914062-37.324219 3.65625-55.175781 1.640626-3.855469-.164062-8.320312-4.019531-9.949219-3.867187-1.640625-8.320312.160157-9.960937 4.015625-2.480469 5.851563-4.433594 11.652344-5.847656 17.351563-13.960938-8.402344-29.03125-12.886719-40.429688-15.273438-14.902344-3.117187-27.59375 9.789063-24.140625 24.71875 3.785156 16.355469 9.179687 29.351563 15.40625 39.6875-15.820313 3.925781-29.667969 11.429688-39.417969 17.804688-12.761718 8.351562-12.574218 26.453125.40625 34.546875 7.617188 4.753906 14.890625 8.507812 21.789063 11.402344-48.515625 10.316406-98.300781 5.953124-144.4375-12.765626-3.886719-1.574218-8.3125.296876-9.890625 4.183594-1.574219 3.882813.296875 8.3125 4.179687 9.886719 31.710938 12.863281 65.03125 19.34375 98.570313 19.34375 35.25 0 63.511718-7.890625 65.035156-8.171875-3.757812 7.390625-6.53125 14.878906-8.566406 21.792969-35.546875 8.289062-73.121094 8.59375-108.792969.851562-4.089844-.890625-8.136719 1.710938-9.027344 5.796875-.890625 4.101563 1.710938 8.148438 5.808594 9.03125 35.472656 7.707032 72.777344 7.945313 108.539063.617188-.039063 11.371094 8.933593 20.367187 20.296874 20.367187 6.617188 0 28.609376-6.347656 44.566407-15.972656.003906-.003906.003906-.003906.003906-.003906.191406.757812.378906 1.519531.585937 2.28125 1.101563 4.035156 5.273438 6.425781 9.320313 5.324219 4.039063-1.105469 6.429687-5.273438 5.324219-9.324219-3.847656-14.128907-3.984375-28.367188 1.480468-41.765625 3.503907 1.582031 7.199219 2.714844 11.09375 3.320312v36.15625c0 4.191406 3.398438 7.59375 7.589844 7.59375s7.59375-3.402344 7.59375-7.59375v-36.335937c3.492188-.65625 7.011719-1.769531 10.394532-3.332031 9.351562 25.152343.347656 51.8125-13.910157 74.660156-1.082031 1.734375-2.730469 2.714844-4.523437 2.714844-3.40625 0-4.828125-2.804688-8.59375-9.34375-2.085938-3.632813-6.730469-4.878907-10.363282-2.792969-3.636718 2.09375-4.878906 6.742187-2.796874 10.375 1.449218 2.511719 2.996093 5.03125 4.605468 7.492187 8.363282 12.769532 26.46875 12.5625 34.546875-.40625 8.324219-13.320312 14.070313-26.347656 17.21875-38.941406 13.960938 8.402344 29.019531 12.886719 40.417969 15.265625 12.75 2.707031 24.617188-6.578125 24.695312-19.707031 3.703126.558594 23.652344 5.300781 52.660157 5.300781 18.726562 0 37.460937-1.980469 55.722656-5.949219 4.097656-.882812 6.699219-4.929687 5.808594-9.03125-.890625-4.085937-4.9375-6.6875-9.027344-5.796875-57.832031 12.542969-101.003906.066407-108.746094-.839843-2.515625-8.226563-5.476562-15.464844-8.742187-21.835938 2.398437.445312 29.003906 8.203125 65.164062 8.203125 33.535156 0 66.863282-6.484375 98.566406-19.34375 3.890626-1.578125 5.761719-6.003906 4.183594-9.886719zm-370.316406-15.707031c-3.535156-2.195313-3.664062-6.644531-.121094-8.957031 22.613282-14.78125 49.574219-24.253906 74.628906-13.886719-1.589843 3.554687-2.742187 7.273437-3.347656 11.183594-12.082031 0-28.71875 0-36.160156 0-4.1875 0-7.589844 3.390625-7.589844 7.59375 0 4.1875 3.402344 7.589843 7.589844 7.589843h36.339844c.691406 3.664063 1.78125 7.015626 3.332031 10.394532-25.332031 9.484375-51.902344.296875-74.671875-13.917969zm77.484375 62.929687c-10.597656 7.472657-24.121094 13.140626-40.550781 16.945313-4.179688.964844-7.507813-1.519531-5.898438-8.675781 3.050782-13.566406 8.050782-27.246094 16.0625-38.542969 7.476563.515625 14.714844.097656 21.945313-1.398437l-15.617188 15.621093c-4.746093 4.761719-1.375 12.953125 5.375 12.953125 5.316407 0 6.3125-4.078125 19.96875-16.832031-1.332031 6.703125-1.710937 13.1875-1.285156 19.929687zm-14.121094-129.015624c-2.964843-2.964844-7.773437-2.964844-10.738281 0-2.964844 2.964843-2.964844 7.773437 0 10.738281l14.566406 14.566406c-6.378906-1.265625-13.007812-1.691406-19.882812-1.253906-7.46875-10.589844-13.136719-24.132813-16.941406-40.550781-.945313-4.082032 2.128906-7.273438 6.242187-6.417969 13.929687 2.917969 28.730469 7.9375 40.925781 16.5625-.539062 7.125-.113281 14.65625 1.375 21.902343zm63.082031 88.144531c-.011718.007812-.03125.019531-.039062.007812-23.164062 10.296875-48.363281-13.550781-38.578125-37.398437-.007813-.011719 0-.023438.011719-.03125 2.804687-7.171875 8.625-13.039063 15.464844-15.964844.011718-.007812.03125-.019531.042968-.019531 14.839844-6.457031 32.035156.664062 38.21875 15.144531.011719.007812.023438.03125.023438.039062 6.386718 14.683594-.496094 31.960938-15.144532 38.222657zm25.820313-94.257813c10.597656-7.480468 24.121094-13.140625 40.550781-16.945312 4.101563-.960938 7.285156 2.152344 6.429688 6.246094-5.648438 26.984374-16.273438 40.367187-16.558594 40.933593-7.3125-.519531-14.472656-.164062-21.910156 1.367188l15.550781-15.546875c2.953125-2.96875 2.953125-7.777344 0-10.742188-2.96875-2.964844-7.773437-2.964844-10.742187 0l-14.617188 14.617188c1.363281-6.691406 1.742188-13.769532 1.296875-19.929688zm40.875 151.933594c-13.929687-2.914062-28.726563-7.945312-40.925781-16.558594.539062-7.117187.121094-14.636718-1.378906-21.921875 14.855468 13.921875 15.578124 17.78125 20.917968 17.78125 6.703125 0 10.171875-8.160156 5.375-12.957031l-14.617187-14.617188c6.785156 1.351563 13.351562 1.707032 19.925781 1.296876 4.371094 6.195312 8.117188 13.398437 11.242188 21.589843h-.003907c2.339844 6.089844 4.265625 12.726563 5.710938 18.957031.949219 4.121094-2.171875 7.28125-6.246094 6.429688zm0 0"/><path d="m51.066406 125.992188c0 6.878906-5.578125 12.457031-12.457031 12.457031s-12.457031-5.578125-12.457031-12.457031c0-6.882813 5.578125-12.460938 12.457031-12.460938s12.457031 5.578125 12.457031 12.460938zm0 0"/><path d="m102.558594 138.449219c0 6.878906-5.578125 12.457031-12.460938 12.457031-6.878906 0-12.457031-5.578125-12.457031-12.457031 0-6.882813 5.578125-12.457031 12.457031-12.457031 6.882813 0 12.460938 5.574218 12.460938 12.457031zm0 0"/><path d="m485.851562 125.992188c0 6.878906-5.578124 12.457031-12.457031 12.457031-6.882812 0-12.457031-5.578125-12.457031-12.457031 0-6.882813 5.574219-12.460938 12.457031-12.460938 6.878907 0 12.457031 5.578125 12.457031 12.460938zm0 0"/><path d="m434.359375 138.449219c0 6.878906-5.574219 12.457031-12.457031 12.457031-6.878906 0-12.457032-5.578125-12.457032-12.457031 0-6.882813 5.578126-12.457031 12.457032-12.457031 6.882812 0 12.457031 5.574218 12.457031 12.457031zm0 0"/></svg>