<?xml version="1.0" encoding="iso-8859-1"?>
<!-- Generator: Adobe Illustrator 16.0.0, SVG Export Plug-In . SVG Version: 6.00 Build 0)  -->
<!DOCTYPE svg PUBLIC "-//W3C//DTD SVG 1.1//EN" "http://www.w3.org/Graphics/SVG/1.1/DTD/svg11.dtd">
<svg fill="#ffffff" version="1.1" id="Capa_1" xmlns="http://www.w3.org/2000/svg" xmlns:xlink="http://www.w3.org/1999/xlink" x="0px" y="0px"
	 width="220.34px" height="220.34px" viewBox="0 0 220.34 220.34" style="enable-background:new 0 0 220.34 220.34;"
	 xml:space="preserve">
<g>
	<g>
		<path d="M218.152,128.643H142.92c1.888-2.099,3.069-4.83,3.069-7.857c0-1.36-0.253-2.647-0.611-3.902
			c3.079,1.435,6.37,2.468,9.845,2.821c1.345,0.143,2.685,0.211,4.014,0.211c8.743,0,17.159-2.979,24.047-8.569
			c7.931-6.434,12.878-15.585,13.922-25.758c0.042-0.358-0.048-0.709-0.18-1.018c2.806,0.535,6.139,0.669,8.016-4.493
			c0.839-2.278-0.126-4.989,5.484-9.782c0,0-4.271-1.638-8.827,0.662c0.706-4.303-1.915-6.571,0.554-10.357
			c0,0-8.965,0.135-8.791,9.052c-3.544-3.834-8.237-3.684-8.237-3.684c3.702,6.378,1.877,8.599,1.909,11.043
			c0.063,5.688,3.475,6.528,6.349,6.95c-0.295,0.335-0.517,0.73-0.559,1.205c-0.934,9.012-5.315,17.128-12.361,22.836
			c-7.029,5.716-15.862,8.342-24.874,7.415c-7.093-0.738-13.49-4.188-17.988-9.732c-0.116-0.15-0.2-0.335-0.327-0.485
			c2.531,1.49,5.369,2.495,8.401,2.813c0.88,0.104,1.767,0.13,2.652,0.13c11.021,0,20.672-7.111,23.804-17.247
			c2.996-0.783,7.868-3.267,2.933-11.066c-0.965-1.532-3.238-4.793-3.396-8.976c0,0-12.825,14.08-3.854,19.28
			c-2.975,8.709-11.881,14.562-21.7,13.581c-4.304-0.448-8.174-2.491-10.916-5.75c-1.931-2.323-3.091-5.068-3.47-7.961
			c-0.063-1.292-0.116-2.586,0.021-3.91c0-0.016-0.005-0.042-0.005-0.053c0.923-6.407,6.913-10.916,13.568-10.288
			c5.242,0.546,9.07,5.097,8.548,10.178c-0.185,1.843-1.107,3.491-2.589,4.651c-1.487,1.181-3.364,1.722-5.3,1.511
			c-1.171-0.172-2.246,0.746-2.368,1.917c-0.115,1.194,0.744,2.246,1.925,2.365c3.043,0.351,6.044-0.551,8.433-2.413
			c2.404-1.901,3.892-4.601,4.208-7.599c0.76-7.446-4.814-14.131-12.413-14.914c-6.308-0.654-12.15,2.294-15.525,7.09
			c-2.905-8.672-11.021-14.995-20.664-14.995c-9.64,0-17.75,6.312-20.656,14.974c-3.359-4.807-9.181-7.754-15.524-7.085
			c-7.6,0.775-13.166,7.468-12.403,14.914c0.311,3.014,1.804,5.713,4.206,7.599c2.381,1.877,5.374,2.763,8.424,2.412
			c1.189-0.113,2.046-1.187,1.927-2.365c-0.124-1.187-1.221-2.078-2.371-1.912c-1.933,0.2-3.812-0.34-5.302-1.516
			c-1.474-1.173-2.391-2.813-2.586-4.651c-0.52-5.071,3.314-9.638,8.548-10.178c6.713-0.659,12.651,3.904,13.569,10.291
			c0,0.013-0.005,0.034-0.005,0.05c0.137,1.313,0.077,2.607,0.024,3.902c-0.369,2.89-1.529,5.64-3.467,7.96
			c-2.727,3.268-6.605,5.308-10.914,5.756c-9.877,0.994-18.739-4.86-21.703-13.574c8.98-5.21-3.85-19.285-3.85-19.285
			c-0.164,4.182-2.437,7.441-3.404,8.976c-4.928,7.786-0.063,10.278,2.935,11.063c3.13,10.138,12.786,17.25,23.807,17.25
			c0.881,0,1.767-0.045,2.658-0.134c3.03-0.314,5.854-1.308,8.396-2.803c-0.119,0.15-0.198,0.334-0.316,0.479
			c-4.498,5.534-10.887,8.988-17.988,9.727c-9.018,0.939-17.853-1.697-24.885-7.411c-7.035-5.711-11.425-13.827-12.353-22.834
			c-0.05-0.467-0.271-0.86-0.556-1.195c2.871-0.432,6.28-1.273,6.338-6.961c0.016-2.436-1.798-4.659,1.907-11.042
			c0,0-4.699-0.145-8.235,3.688c0.171-8.898-8.791-9.046-8.791-9.046c2.462,3.787-0.158,6.043,0.551,10.357
			c-4.559-2.31-8.825-0.662-8.825-0.662c5.606,4.799,4.633,7.509,5.477,9.782c1.885,5.163,5.216,5.018,8.013,4.493
			c-0.129,0.324-0.211,0.659-0.171,1.028c1.047,10.162,5.993,19.298,13.924,25.753c6.879,5.59,15.293,8.564,24.042,8.564
			c1.334,0,2.674-0.074,4.019-0.211c3.483-0.349,6.761-1.403,9.843-2.827c-0.361,1.245-0.614,2.553-0.614,3.913
			c0,3.032,1.181,5.759,3.072,7.847H2.16c-1.195,0-2.16,0.976-2.16,2.157c0,1.197,0.965,2.157,2.16,2.157h82.635
			c0.53,0,0.994-0.211,1.368-0.527c4.936-0.538,8.807-4.673,8.807-9.746c0-1.202-0.968-2.162-2.159-2.162
			c-1.195,0-2.16,0.971-2.16,2.162c0,3.038-2.481,5.517-5.527,5.517c-4.103,0-7.44-3.333-7.44-7.436
			c0-5.432,4.419-9.851,9.845-9.851c7.085,0,12.846,5.769,12.846,12.856c0,7.562-3.53,16.348-13.387,16.548H2.16
			c-1.195,0-2.16,0.971-2.16,2.151c0,1.192,0.965,2.162,2.16,2.162h84.314c0.066,0,0.114,0.032,0.185,0.032h17.843l-3.916,5.779
			c-0.448,0.664-0.498,1.514-0.119,2.226c0.377,0.706,1.113,1.149,1.912,1.149h2.025c-0.016,0.174-0.108,0.343-0.108,0.538
			c0,2.984,2.413,5.399,5.395,5.399c2.979,0,5.395-2.415,5.395-5.399c0-0.19-0.092-0.349-0.107-0.538h2.51c0.042,0,0.076,0,0.108,0
			c1.199,0,2.159-0.976,2.159-2.162c0-0.664-0.306-1.266-0.786-1.677l-3.588-5.315h17.331c0.068,0,0.116-0.032,0.189-0.032h84.312
			c1.192,0,2.157-0.97,2.157-2.162c0-1.191-0.976-2.151-2.157-2.151h-84.828c-9.861-0.2-13.395-8.986-13.395-16.548
			c0-7.088,5.77-12.856,12.856-12.856c5.427,0,9.841,4.419,9.841,9.851c0,4.103-3.339,7.436-7.446,7.436
			c-3.038,0-5.517-2.479-5.517-5.517c0-1.202-0.97-2.162-2.151-2.162c-1.202,0-2.162,0.971-2.162,2.162
			c0,5.422,4.419,9.83,9.841,9.83c0.021,0,0.042,0,0.068,0c0.354,0.248,0.759,0.422,1.229,0.422h82.635
			c1.197,0,2.157-0.971,2.157-2.151C220.33,129.603,219.354,128.643,218.152,128.643z M101.044,70.255
			c-2.046,3.927-3.304,9.239-3.304,15.201c0,5.961,1.257,11.288,3.304,15.19c-5.303-3.035-8.926-8.662-8.926-15.19
			S95.742,73.286,101.044,70.255z M107.512,140.339h-9.173c4-3.67,6.344-9.439,6.344-16.543c0-9.471-7.699-17.183-17.165-17.183
			c-0.482,0-0.937,0.097-1.405,0.137c2.23-3.127,3.862-6.562,4.796-10.223c2.207,3.721,5.447,6.721,9.368,8.606
			c-0.047,0.509,0.005,1.01,0.298,1.437l5.875,8.662c0.292,0.433,0.68,0.706,1.057,1.018L107.512,140.339L107.512,140.339z
			 M107.512,68.917v33.193c-2.877-2.154-5.458-8.369-5.458-16.664c0-8.321,2.597-14.525,5.492-16.69
			C107.546,68.824,107.512,68.869,107.512,68.917z M118.318,70.255c5.302,3.035,8.92,8.667,8.92,15.201
			c0,6.528-3.618,12.171-8.92,15.19c2.048-3.92,3.298-9.229,3.298-15.19C121.616,79.495,120.366,74.171,118.318,70.255z
			 M117.302,85.461c0,8.295-2.592,14.5-5.469,16.664V68.917c0-0.053-0.026-0.098-0.026-0.135
			C114.7,70.92,117.302,77.14,117.302,85.461z M131.835,106.614c-9.471,0-17.167,7.712-17.167,17.183
			c0,7.104,2.344,12.895,6.336,16.543h-9.166v-23.635c0.599-0.333,1.134-0.828,1.566-1.461l5.864-8.662
			c0.332-0.501,0.364-1.091,0.243-1.674c3.718-1.896,6.818-4.783,8.928-8.364c0.938,3.649,2.568,7.085,4.804,10.229
			C132.775,106.706,132.316,106.614,131.835,106.614z"/>
	</g>
</g>
<g>
</g>
<g>
</g>
<g>
</g>
<g>
</g>
<g>
</g>
<g>
</g>
<g>
</g>
<g>
</g>
<g>
</g>
<g>
</g>
<g>
</g>
<g>
</g>
<g>
</g>
<g>
</g>
<g>
</g>
</svg>
