<?xml version="1.0" encoding="iso-8859-1"?>
<!-- Generator: Adobe Illustrator 19.0.0, SVG Export Plug-In . SVG Version: 6.00 Build 0)  -->
<svg fill="#fff" version="1.1" id="Layer_1" xmlns="http://www.w3.org/2000/svg" xmlns:xlink="http://www.w3.org/1999/xlink" x="0px" y="0px"
	 viewBox="0 0 512 512" style="enable-background:new 0 0 512 512;" xml:space="preserve">
<g>
	<g>
		<g>
			<path d="M255.985,0C167.175,0,94.923,72.925,94.923,162.564c0,36.179,24.985,102.454,74.262,196.982
				c36.048,69.151,72.598,129.177,72.962,129.776L255.983,512l13.838-22.677c0.365-0.599,36.922-60.624,72.978-129.776
				c49.287-94.529,74.278-160.804,74.278-196.983C417.077,72.925,344.811,0,255.985,0z M255.985,449.297
				c-45.599-77.568-128.643-230.467-128.643-286.734c0-71.762,57.71-130.144,128.643-130.144
				c70.951,0,128.675,58.382,128.675,130.145C384.658,218.806,301.595,371.719,255.985,449.297z"/>
			<path d="M286.186,96.999c-10.777,0-21.231,3.087-30.185,8.735c-8.954-5.647-19.408-8.735-30.185-8.735
				c-31.205,0-56.594,25.388-56.594,56.595c0,30.281,27.931,55.768,52.266,74.588c10.596,8.194,25.077,17.61,25.688,18.006
				l8.825,5.728l8.825-5.728c0.611-0.397,15.093-9.812,25.688-18.006c24.335-18.82,52.266-44.307,52.266-74.588
				C342.78,122.388,317.391,96.999,286.186,96.999z M270.68,202.539c-4.562,3.529-10.117,7.434-14.68,10.553
				c-4.559-3.117-10.108-7.018-14.679-10.553c-26.329-20.364-39.68-36.832-39.68-48.945c0-13.331,10.845-24.176,24.175-24.176
				c6.891,0,13.479,2.962,18.071,8.128l12.114,13.626l12.114-13.626c4.593-5.166,11.179-8.128,18.071-8.128
				c13.33,0,24.175,10.845,24.175,24.176C310.361,165.707,297.011,182.174,270.68,202.539z"/>
		</g>
	</g>
</g>
<g>
</g>
<g>
</g>
<g>
</g>
<g>
</g>
<g>
</g>
<g>
</g>
<g>
</g>
<g>
</g>
<g>
</g>
<g>
</g>
<g>
</g>
<g>
</g>
<g>
</g>
<g>
</g>
<g>
</g>
</svg>
