<?xml version="1.0" encoding="iso-8859-1"?>
<!-- Generator: Adobe Illustrator 16.0.0, SVG Export Plug-In . SVG Version: 6.00 Build 0)  -->
<!DOCTYPE svg PUBLIC "-//W3C//DTD SVG 1.1//EN" "http://www.w3.org/Graphics/SVG/1.1/DTD/svg11.dtd">
<svg fill="#ffffff" version="1.1" id="Capa_1" xmlns="http://www.w3.org/2000/svg" xmlns:xlink="http://www.w3.org/1999/xlink" x="0px" y="0px"
	 width="212.889px" height="212.889px" viewBox="0 0 212.889 212.889" style="enable-background:new 0 0 212.889 212.889;"
	 xml:space="preserve">
<g>
	<g>
		<path d="M0,142.313c0,1.208,0.965,2.157,2.16,2.157h66.403c3.958,3.396,8.445,6.212,13.407,8.259
			c4.947,2.035,10.139,3.059,15.327,3.059c2.917,0,5.819-0.359,8.688-1.013c0.309,0.152,0.644,0.295,1.015,0.295
			c0.422,0,0.789-0.147,1.126-0.348c2.953,0.675,5.959,1.065,8.976,1.065c5.189,0,10.378-1.023,15.324-3.059
			c4.957-2.047,9.45-4.862,13.405-8.259h64.905c1.192,0,2.152-0.97,2.152-2.157c0-1.186-0.966-2.146-2.152-2.146h-60.496
			c3.765-4.166,6.865-8.934,9.08-14.275c0.043-0.11,0.074-0.211,0.116-0.321h51.3c1.192,0,2.152-0.971,2.152-2.157
			s-0.966-2.146-2.152-2.146h-49.659c2.673-12.1,14.027-20.231,26.056-18.186c1.187,0.222,2.289-0.577,2.489-1.771
			c0.2-1.171-0.596-2.289-1.772-2.489c-9.513-1.582-18.699,2.184-24.742,9.094c0.147-6.694-1.055-13.402-3.66-19.786
			c3.564-1.15,7.525-3.045,6.486-10.222c-0.453-3.175-3.27-5.706,0.232-14.742c0,0-5.98,0.751-9.814,6.275
			c-1.861-5.421-6.322-6.415-5.838-12.34c0,0-10.272,5.769-4.524,15.981c-6.497-2.226-11.844,0.872-11.844,0.872
			c8.264,5.065,7.552,8.796,9.102,11.589c3.766,6.805,8.464,5.286,12.118,3.937c0.011,0.029,0.011,0.061,0.021,0.082
			c4.614,11.2,4.604,23.512-0.042,34.701c-2.563,6.165-6.396,11.533-11.153,15.916h-0.944c2.731-5.569,3.507-11.95,1.993-18.184
			c2.812-2.589,6.376-7.931-3.164-13.523c-1.914-1.139-6.223-3.406-8.743-7.857c0,0-6.396,23.839,7.91,23.063
			c2.273,10.747-3.67,22.021-14.539,26.272c-0.194,0.073-0.332,0.195-0.501,0.332c-3.527,0.928-7.129,1.303-10.726,1.139
			c8.563-4.329,15.245-11.475,18.952-20.439c0.454-1.107-0.073-2.362-1.176-2.816c-1.118-0.453-2.367,0.085-2.811,1.192
			c-3.649,8.838-10.531,15.726-19.375,19.406c-0.622,0.264-1.249,0.453-1.882,0.675v-13.764c3.938-0.496,7.604-2.268,10.425-5.289
			c3.254-3.486,5.021-8.079,4.979-12.936l-0.084-9.01l-2.996,1.278c-0.137,0.071-14.607,6.223-23.377,0.324
			c-0.999-0.675-2.339-0.4-2.998,0.572c-0.667,1.002-0.403,2.342,0.586,3.017c8.095,5.453,19.229,2.869,24.523,1.171l0.021,2.689
			c0.031,3.733-1.318,7.293-3.808,9.945c-2.468,2.637-5.742,4.108-9.241,4.14c-3.37,0.048-6.806-1.382-9.311-3.971
			c-2.531-2.615-3.947-6.139-3.979-9.883l-0.129-15.058c-0.013-1.44,1.273-2.943,3.525-4.14c2.732-1.448,6.474-2.268,10.542-2.302
			c0.063,0,0.124,0,0.192,0c6.618,0,10.858,2.734,10.868,4.612c-0.211,1.118-5.23,4.029-10.82,4.071
			c-0.079,0.01-0.156,0.01-0.229,0.01c-4.554,0-7.755-1.089-8.14-1.279c0.25-0.788,3.014-2.668,7.729-2.581
			c2.839,0.113,4.532,0.938,5.176,1.674c0.791,0.896,2.156,0.989,3.048,0.185c0.896-0.783,0.98-2.144,0.195-3.04
			c-1.651-1.869-4.583-2.977-8.251-3.116c-4.348-0.169-8.213,1.036-10.494,3.256c-1.128,1.092-1.722,2.339-1.711,3.547
			c0.05,5.621,11.377,5.724,12.709,5.692c3.101-0.021,6.671-0.841,9.571-2.191c3.597-1.674,5.563-3.884,5.542-6.207
			c-0.042-5.107-6.549-8.925-15.188-8.925c-0.073,0-0.155,0-0.231,0c-4.746,0.042-9.194,1.025-12.527,2.813
			c-3.781,1.999-5.848,4.838-5.822,7.986l0.129,15.045c0.045,4.862,1.885,9.43,5.197,12.862c2.758,2.853,6.283,4.562,10.07,5.067
			v13.621c-0.496-0.174-1.005-0.332-1.501-0.543c-8.84-3.67-15.72-10.567-19.369-19.406c-0.453-1.107-1.719-1.635-2.818-1.181
			c-1.102,0.464-1.627,1.708-1.173,2.815c3.705,8.965,10.378,16.105,18.95,20.44c-3.597,0.158-7.198-0.211-10.726-1.14
			c-0.156-0.115-0.309-0.253-0.501-0.337c-10.877-4.251-16.817-15.525-14.544-26.272c14.307,0.791,7.908-23.058,7.908-23.058
			c-2.518,4.451-6.821,6.718-8.738,7.857c-9.537,5.592-5.972,10.929-3.164,13.524c-1.55,6.339-0.701,12.814,2.144,18.446
			c-0.298-0.158-0.622-0.264-0.983-0.264h-0.113c-4.762-4.388-8.596-9.762-11.156-15.915c-4.643-11.18-4.659-23.501-0.042-34.702
			c0.011-0.021,0.005-0.053,0.016-0.074c3.655,1.361,8.354,2.855,12.119-3.937c1.553-2.813,0.841-6.531,9.102-11.593
			c0,0-5.345-3.095-11.842-0.87c5.746-10.217-4.524-15.979-4.524-15.979c0.48,5.938-3.974,6.911-5.838,12.332
			c-3.833-5.519-9.816-6.267-9.816-6.267c3.51,9.049,0.691,11.583,0.232,14.747c-1.037,7.154,2.921,9.06,6.486,10.212
			c-2.605,6.386-3.803,13.094-3.657,19.783c-6.043-6.9-15.228-10.682-24.743-9.086c-1.176,0.198-1.97,1.316-1.772,2.495
			c0.201,1.181,1.318,1.975,2.492,1.764c12.008-2.012,23.375,6.088,26.054,18.181H2.181c-1.192,0-2.16,0.98-2.16,2.156
			c0,1.197,0.968,2.157,2.16,2.157h52.65c0.05,0,0.092-0.032,0.14-0.032c0.05,0.111,0.082,0.232,0.127,0.338
			c2.212,5.315,5.312,10.104,9.07,14.27H2.181C0.965,140.146,0,141.117,0,142.313z"/>
	</g>
</g>
<g>
</g>
<g>
</g>
<g>
</g>
<g>
</g>
<g>
</g>
<g>
</g>
<g>
</g>
<g>
</g>
<g>
</g>
<g>
</g>
<g>
</g>
<g>
</g>
<g>
</g>
<g>
</g>
<g>
</g>
</svg>
